<?xml version="1.0" encoding="UTF-8"?>
<!-- Font Awesome 4.7 by Dave Gandy (CC BY 4.0). https://github.com/FortAwesome/Font-Awesome/tree/v4.7.0 https://github.com/Rush/Font-Awesome-SVG-PNG -->
<svg width="1792" height="1792" viewBox="0 0 1792 1792" xmlns="http://www.w3.org/2000/svg"><path d="M576 736v192q0 40-28 68t-68 28h-192q-40 0-68-28t-28-68v-192q0-40 28-68t68-28h192q40 0 68 28t28 68zm512 0v192q0 40-28 68t-68 28h-192q-40 0-68-28t-28-68v-192q0-40 28-68t68-28h192q40 0 68 28t28 68zm512 0v192q0 40-28 68t-68 28h-192q-40 0-68-28t-28-68v-192q0-40 28-68t68-28h192q40 0 68 28t28 68z"/></svg>
