<?xml version="1.0" encoding="UTF-8"?>
<!-- Font Awesome 4.7 by Dave Gandy (CC BY 4.0). https://github.com/FortAwesome/Font-Awesome/tree/v4.7.0 https://github.com/Rush/Font-Awesome-SVG-PNG -->
<svg width="1792" height="1792" viewBox="0 0 1792 1792" xmlns="http://www.w3.org/2000/svg"><path d="M1152 896q0 106-75 181t-181 75-181-75-75-181 75-181 181-75 181 75 75 181zm-256-544q-148 0-273 73t-198 198-73 273 73 273 198 198 273 73 273-73 198-198 73-273-73-273-198-198-273-73zm768 544q0 209-103 385.5t-279.5 279.5-385.5 103-385.5-103-279.5-279.5-103-385.5 103-385.5 279.5-279.5 385.5-103 385.5 103 279.5 279.5 103 385.5z"/></svg>
